# xmcd CD database file
#
# Track frame offsets:
#	150
#	17867
#	36002
#	60545
#	74892
#	100977
#	122904
#	146442
#	163362
#	186092
#	202260
#
# Disc length: 3053 seconds
#
# Revision: 2
# Processed by: cddbd v1.5.1PL0 Copyright (c) Steve Scherf et al.
# Submitted via: CDex 1.51
#
DISCID=ad0beb0b
DTITLE=Christianshanvs Bluesband - Christianshavns Bluesband Live
DYEAR=2000
DGENRE=Blues
TTITLE0=I'm Ready (live)
TTITLE1=She's A Woman (live)
TTITLE2=CC Rider (live)
TTITLE3=Don't Let Go (live)
TTITLE4=Don't Let The Sun Go Down On Me (live)
TTITLE5=Alabama Song (live)
TTITLE6=We Still Can Have It All (live)
TTITLE7=Born under A Bad Sign (live)
TTITLE8=Nobody Loves You (live)
TTITLE9=Thing Called Love (live)
TTITLE10=Purple Rain (live)
EXTD=YEAR: 2000
EXTT0=
EXTT1=
EXTT2=
EXTT3=
EXTT4=
EXTT5=
EXTT6=
EXTT7=
EXTT8=
EXTT9=
EXTT10=
PLAYORDER=
